<svg width="233" height="34" viewBox="0 0 233 34" fill="none" xmlns="http://www.w3.org/2000/svg">
<path d="M68.7586 0.654551H64.7244V33.5207H68.7586V0.654551Z" fill="#E9ECEE"/>
<path d="M45.4382 0.654551H41.404V0.671984H36.9993L22.7745 33.4901H27.2105L41.404 0.744318V33.5207H45.4382V0.654551Z" fill="#E9ECEE"/>
<path d="M0 0.654551H4.03422V0.671984H8.43884L22.6637 33.4901H18.2277L4.03422 0.744432V33.5207H0V0.654551Z" fill="#E9ECEE"/>
<path d="M103.082 0C100.154 0 97.4861 0.509791 95.1045 1.56032L95.1012 1.56179C92.7508 2.60616 90.8468 4.06099 89.4402 5.94505C88.0122 7.84367 87.295 10.0138 87.295 12.4098C87.295 15.2849 88.4037 17.7548 90.5526 19.7462L90.5567 19.75C92.6751 21.6967 95.7597 23.1765 99.681 24.2674L99.6863 24.2689C100.542 24.5031 101.391 24.7216 102.232 24.9377C105.453 25.7659 108.54 26.5598 111.294 28.0692C113.24 29.1363 114.711 30.5998 115.153 32.4924L115.395 33.5329H119.653L119.334 31.9248C118.902 29.7439 117.701 27.8708 116.086 26.4658C113.279 23.954 109.543 22.7248 106.287 21.8391C105.504 21.6248 104.729 21.4243 103.964 21.2262C101.325 20.5434 98.7968 19.889 96.4354 18.7978C94.4487 17.8445 92.7835 16.6136 92.0086 14.8782C91.68 14.1423 91.508 13.3254 91.508 12.4098C91.508 10.8137 91.9763 9.43608 92.9128 8.22588L92.9166 8.22094C93.8811 6.96246 95.2203 5.94197 96.9878 5.18132C98.7418 4.42648 100.765 4.03379 103.082 4.03379C106.624 4.03379 109.328 4.91674 111.324 6.5565L111.327 6.55938C113.36 8.21704 114.453 10.2912 114.66 12.8537L114.761 14.0914H118.969L118.866 12.6487C118.69 10.205 117.913 8.0013 116.526 6.07133C115.143 4.14732 113.283 2.65755 110.988 1.59197C108.673 0.516802 106.026 0 103.082 0Z" fill="#E9ECEE"/>
<path d="M172.321 0.662475H133.247V4.69643H151.045V33.5286H155.079V4.69643H172.321V0.662475Z" fill="#E9ECEE"/>
<path d="M192.869 0.614136H187.737L208.051 24.7073V33.482H212.074V24.6508L232.335 0.614136H227.201L210.075 20.7358L192.869 0.614136Z" fill="#E9ECEE"/>
</svg>
