<svg width="1440" height="903" viewBox="0 0 1440 903" fill="none" xmlns="http://www.w3.org/2000/svg">
<path d="M313.71 395.117L347.653 417.008L356.324 422.547L366.247 428.81L377.546 435.844L390.653 443.872L405.836 453.003L421.485 462.222L439.644 472.677L458.711 483.378L479.818 494.899L501.652 506.456L525.617 518.722L550.665 531.084L577.155 543.648L604.782 556.196L634.043 568.876L664.012 581.214L695.309 593.397L727.725 605.267L760.308 616.422L794.448 627.273L828.894 637.354L863.298 646.535L898.757 655.058L933.978 662.568L968.84 669.031L1003.82 674.52L1038.12 678.9L1071.46 682.161L1449.08 707.515L1449.05 707.937L1085.27 683.511L1466.19 720.774L1466.15 721.194L1071.43 682.583L1061.99 681.949L1481.22 735.499L1481.16 735.919L1054.96 681.478L1043.08 680.679L1494.22 751.475L1494.16 751.892L1038.31 680.359L1025.19 679.478L1505.29 768.494L1505.21 768.91L1021.55 679.235L1007.84 678.314L1514.49 786.345L1514.41 786.759L1004.87 678.114L990.739 677.165L1521.95 804.85L1521.85 805.262L988.226 676.997L973.841 676.031L1527.74 823.843L1527.63 824.251L971.643 675.883L957.235 674.916L1532 843.141L1531.88 843.546L955.285 674.785L940.886 673.818L1534.83 862.604L1534.7 863.007L939.123 673.7L924.819 672.739L1536.35 882.102L1536.21 882.502L923.193 672.63L909.113 671.685L1536.68 901.485L1536.54 901.882L907.614 671.584L893.773 670.655L1535.95 920.652L1535.79 921.045L892.365 670.56L878.832 669.651L1534.27 939.491L1534.11 939.882L877.511 669.563L864.364 668.68L1531.77 957.899L1531.6 958.287L863.102 668.595L850.362 667.74L1528.57 975.797L1528.39 976.182L849.155 667.659L836.887 666.835L1524.78 993.095L1524.6 993.477L835.744 666.758L823.978 665.969L1520.52 1009.72L1520.34 1010.1L822.87 665.895L811.671 665.142L1515.91 1025.62L1515.72 1026L810.603 665.07L799.977 664.357L1511.04 1040.73L1510.84 1041.1L798.94 664.288L788.948 663.617L1506.02 1054.99L1505.82 1055.36L787.942 663.549L778.596 662.922L1500.95 1068.37L1500.75 1068.74L777.619 662.856L768.961 662.275L1495.92 1080.82L1495.71 1081.19L767.998 662.21L760.042 661.676L1491.02 1092.32L1490.8 1092.68L759.104 661.613L751.904 661.13L1486.32 1102.81L1486.1 1103.18L750.979 661.068L744.532 660.635L1481.9 1112.3L1481.67 1112.66L743.618 660.573L737.953 660.193L1477.81 1120.76L1477.59 1121.11L737.052 660.133L732.186 659.806L1474.13 1128.15L1473.91 1128.51L731.305 659.747L727.259 659.475L1470.91 1134.47L1470.68 1134.83L726.377 659.416L723.162 659.2L1468.18 1139.71L1467.95 1140.07L722.29 659.142L-65.0536 606.279L-65.0249 605.857L721.556 658.668L702.714 646.516L-78.6874 570.082L-78.6465 569.661L701.938 646.016L683.32 634.008L-91.9054 534.986L-91.8516 534.567L682.495 633.475L664.156 621.648L-104.707 500.998L-104.642 500.58L663.279 621.082L645.272 609.468L-117.092 468.119L-117.015 467.703L644.335 608.865L626.681 597.478L-129.061 436.34L-128.973 435.926L625.679 596.832L608.433 585.709L-140.613 405.666L-140.514 405.255L607.358 585.017L590.59 574.201L-151.749 376.107L-151.64 375.699L589.431 573.453L573.125 562.937L-162.469 347.643L-162.35 347.237L571.875 562.13L556.105 551.959L-172.772 320.285L-172.644 319.882L554.75 551.085L539.585 541.304L-182.659 294.042L-182.522 293.642L538.108 540.351L523.524 530.945L-192.13 268.893L-191.984 268.495L521.908 529.903L508.005 520.936L-201.184 244.855L-201.031 244.46L506.23 519.791L493.038 511.282L-209.821 221.922L-209.661 221.531L491.079 510.019L478.632 501.991L-218.042 200.093L-217.874 199.705L476.456 500.587L464.849 493.101L-225.847 179.374L-225.673 178.99L462.415 491.531L451.667 484.599L-233.236 159.758L-233.054 159.376L448.924 482.83L439.127 476.511L-240.208 141.249L-240.021 140.869L436.01 474.5L427.22 468.831L-246.763 123.841L-246.571 123.465L423.654 466.531L416.028 461.612L-252.903 107.544L-252.705 107.17L411.893 458.945L405.46 454.796L-258.626 92.3457L-258.424 91.9744L400.605 451.665L395.649 448.468L-263.932 78.2579L-263.726 77.889L389.861 444.734L386.513 442.575L-268.823 65.2727L-268.611 64.906L379.46 438.027L378.183 437.203L-273.297 53.3979L-273.082 53.0337L365.573 429.284L-277.354 42.6217L-277.136 42.2589L346.154 417.11L-280.995 32.9557L-280.774 32.5956L327.52 405.201L-284.22 24.3964L-283.996 24.0378L309.099 393.237L-287.028 16.9395L-286.802 16.5826L289.375 380.286L-289.419 10.5899L-289.192 10.2328L266.898 365.428L-291.395 5.34613L-291.166 4.99066L275.312 370.351L-292.983 1.00946L-292.896 0.875279L313.71 395.117ZM1055 681.055L1057.62 681.232L1052.31 680.713L1055 681.055ZM1038.36 679.939L1047.97 680.584L1038.08 679.321L1028.37 678.372L1038.36 679.939ZM1021.6 678.814L1033.59 679.618L1021.11 677.661L1008.99 676.476L1021.6 678.814ZM1004.94 677.695L1017.97 678.57L1004.09 675.996L990.928 674.708L1004.94 677.695ZM1021.19 677.244L1023.89 677.508L1018.43 676.811L1021.19 677.244ZM1004.15 675.577L1013.93 676.534L1003.75 674.937L993.925 673.682L1004.15 675.577ZM988.293 676.577L1001.97 677.496L987.178 674.342L973.378 672.993L988.293 676.577ZM987.248 673.925L999.24 675.098L986.471 672.73L974.433 671.192L987.248 673.925ZM971.719 675.464L985.781 676.409L970.324 672.694L956.13 671.305L971.719 675.464ZM970.4 672.276L983.5 673.557L969.372 670.545L956.2 668.863L970.4 672.276ZM986.532 672.311L989.141 672.644L983.86 671.816L986.532 672.311ZM955.357 674.366L969.522 675.317L953.536 671.051L939.26 669.655L955.357 674.366ZM969.445 670.129L979.079 671.359L968.78 669.45L959.232 667.951L969.445 670.129ZM939.196 673.281L953.407 674.235L937 669.433L922.686 668.033L939.196 673.281ZM953.618 670.635L967.345 671.977L952.332 668.369L938.513 666.604L953.618 670.635ZM952.415 667.953L964.385 669.482L951.552 666.746L939.563 664.864L952.415 667.953ZM923.28 672.212L937.433 673.163L920.678 667.837L906.427 666.443L923.28 672.212ZM937.081 669.017L951.024 670.38L935.362 666.202L921.341 664.41L937.081 669.017ZM907.696 671.166L921.652 672.103L904.595 666.263L890.56 664.891L907.696 671.166ZM935.448 665.786L948.547 667.459L934.35 664.047L921.188 661.981L935.448 665.786ZM951.631 666.331L953.761 666.664L949.451 665.866L951.631 666.331ZM920.756 667.42L934.822 668.796L918.672 664.069L904.533 662.264L920.756 667.42ZM892.458 670.143L906.197 671.066L888.886 664.727L875.074 663.376L892.458 670.143ZM934.435 663.632L943.952 665.126L933.906 662.984L924.415 661.224L934.435 663.632ZM918.756 663.653L932.297 665.383L917.203 661.356L903.624 659.225L918.756 663.653ZM904.691 665.848L918.749 667.224L902.21 661.967L888.08 660.162L904.691 665.848ZM877.602 669.145L891.049 670.048L873.518 663.224L860.007 661.902L877.602 669.145ZM917.295 660.943L929.221 662.814L916.51 659.759L904.541 657.54L917.295 660.943ZM888.978 664.312L902.859 665.67L885.993 659.895L872.054 658.115L888.978 664.312ZM902.291 661.55L916.087 663.313L900.38 658.716L886.538 656.544L902.291 661.55ZM863.206 668.179L876.282 669.057L858.559 661.761L845.432 660.476L863.206 668.179ZM849.267 667.243L861.944 668.094L844.053 660.341L831.335 659.098L849.267 667.243ZM916.584 659.343L918.433 659.686L914.691 658.888L916.584 659.343ZM873.617 662.809L887.304 664.148L870.173 657.875L856.434 656.12L873.617 662.809ZM900.472 658.303L913.311 660.318L899.164 656.543L886.322 654.161L900.472 658.303ZM886.093 659.482L899.967 661.253L883.796 656.114L869.872 653.929L886.093 659.482ZM835.846 666.342L848.06 667.162L830.024 658.97L817.776 657.771L835.846 666.342ZM899.258 656.13L908.68 657.876L898.681 655.474L889.317 653.477L899.258 656.13ZM858.655 661.346L872.062 662.657L854.698 655.898L841.249 654.18L858.655 661.346ZM883.879 655.699L897.228 657.794L882.218 653.401L868.852 650.923L883.879 655.699ZM870.266 657.46L884.005 659.215L867.456 653.549L853.684 651.389L870.266 657.46ZM822.984 665.478L834.704 666.265L816.541 657.651L804.794 656.501L822.984 665.478ZM844.166 659.928L857.206 661.203L839.648 653.975L826.576 652.306L844.166 659.928ZM882.311 652.988L893.881 655.133L881.152 651.736L869.675 649.29L882.311 652.988ZM810.719 664.655L821.877 665.404L803.601 656.385L792.427 655.292L810.719 664.655ZM854.804 655.485L868.385 657.22L851.539 651.052L837.93 648.916L854.804 655.485ZM867.563 653.139L881.137 655.269L865.517 650.304L851.917 647.782L867.563 653.139ZM830.144 658.556L842.788 659.793L825.065 652.113L812.394 650.495L830.144 658.556ZM799.06 663.872L809.65 664.583L791.279 655.179L780.678 654.142L799.06 663.872ZM881.252 651.325L882.748 651.644L879.72 650.917L881.252 651.325ZM865.603 649.89L878.207 652.227L864.138 648.109L851.566 645.428L865.603 649.89ZM788.062 663.133L798.022 663.803L779.568 654.034L769.604 653.06L788.062 663.133ZM839.748 653.562L853.068 655.263L835.977 648.61L822.633 646.516L839.748 653.562ZM816.648 657.236L828.833 658.428L810.964 650.312L798.762 648.754L816.648 657.236ZM851.638 650.639L865.148 652.76L849.066 647.254L835.544 644.747L851.638 650.639ZM777.738 662.441L787.057 663.066L768.529 652.954L759.214 652.043L777.738 662.441ZM864.232 647.697L873.087 649.584L863.207 646.948L854.634 644.887L864.232 647.697ZM803.72 655.972L815.414 657.116L797.42 648.582L785.717 647.087L803.72 655.972ZM825.181 651.702L838.146 653.357L820.846 646.235L807.867 644.199L825.181 651.702ZM768.128 661.795L776.761 662.375L758.171 651.941L749.546 651.097L768.128 661.795ZM849.175 646.844L862.267 649.272L847.34 644.527L834.263 641.739L849.175 646.844ZM836.089 648.2L849.494 650.303L833.062 644.286L819.649 641.8L836.089 648.2ZM759.23 661.198L767.165 661.731L748.523 650.998L740.6 650.222L759.23 661.198ZM791.402 654.766L802.528 655.855L784.427 646.922L773.299 645.501L791.402 654.766ZM847.432 644.115L858.695 646.516L846.211 642.862L835.07 640.185L847.432 644.115ZM751.112 660.653L758.292 661.135L739.604 650.125L732.441 649.424L751.112 660.653ZM811.088 649.901L823.67 651.508L806.199 643.938L793.608 641.962L811.088 649.901ZM743.755 660.159L750.185 660.59L731.459 649.328L725.05 648.701L743.755 660.159ZM779.694 653.622L790.253 654.654L772.061 645.343L761.505 643.994L779.694 653.622ZM833.164 643.876L846.324 646.315L830.797 641L817.665 638.2L833.164 643.876ZM820.954 645.824L834.136 647.893L817.42 641.386L804.235 638.942L820.954 645.824ZM737.19 659.718L742.841 660.097L724.082 648.607L718.456 648.056L737.19 659.718ZM797.531 648.17L809.657 649.719L792.037 641.715L779.911 639.812L797.531 648.17ZM768.656 652.542L778.584 653.513L760.312 643.842L750.394 642.575L768.656 652.542ZM731.436 659.332L736.29 659.658L717.502 647.963L712.678 647.491L731.436 659.332ZM830.914 640.592L843.206 643.213L829.365 638.814L817.118 635.869L830.914 640.592ZM846.321 642.454L846.786 642.566L845.844 642.315L846.321 642.454ZM726.517 659.002L730.553 659.273L711.745 647.4L707.741 647.008L726.517 659.002ZM806.319 643.528L819.166 645.545L802.224 638.569L789.377 636.187L806.319 643.528ZM722.429 658.727L725.636 658.943L706.808 646.917L703.638 646.607L722.429 658.727ZM817.538 640.978L830.682 643.416L814.729 637.574L801.602 634.775L817.538 640.978ZM758.297 651.528L767.582 652.437L749.243 642.428L739.973 641.244L758.297 651.528ZM784.551 646.511L796.191 647.999L778.445 639.582L766.81 637.756L784.551 646.511ZM829.457 638.401L837.897 640.43L828.786 637.763L820.472 635.545L829.457 638.401ZM748.658 650.586L757.255 651.427L738.859 641.101L730.281 640.006L748.658 650.586ZM792.168 641.308L804.651 643.266L787.518 635.842L775.045 633.53L792.168 641.308ZM814.838 637.164L827.447 639.853L812.737 634.817L800.192 631.802L814.838 637.164ZM772.189 644.933L783.262 646.347L765.41 637.537L754.35 635.802L772.189 644.933ZM802.333 638.159L815.309 640.564L799.023 634.225L786.067 631.463L802.333 638.159ZM739.737 649.713L747.635 650.486L729.19 639.866L721.315 638.861L739.737 649.713ZM731.599 648.917L738.739 649.616L720.253 638.725L713.14 637.816L731.599 648.917ZM812.853 634.41L823.752 637.03L811.802 633.231L800.952 630.336L812.853 634.41ZM760.443 643.432L770.951 644.775L753.008 635.59L742.519 633.945L760.443 643.432ZM778.562 639.173L790.597 641.061L773.308 633.208L761.287 630.979L778.562 639.173ZM724.226 648.196L730.615 648.821L712.095 637.683L705.736 636.87L724.226 648.196ZM799.145 633.818L811.901 636.538L796.616 630.942L783.907 627.886L799.145 633.818ZM787.642 635.435L800.322 637.786L783.772 630.973L771.116 628.274L787.642 635.435ZM749.374 642.019L759.25 643.279L741.233 633.743L731.377 632.196L749.374 642.019ZM717.646 647.552L723.256 648.101L704.707 636.739L699.131 636.027L717.646 647.552ZM765.54 637.129L777.096 638.942L759.676 630.68L748.138 628.541L765.54 637.129ZM711.883 646.989L716.694 647.459L698.121 635.898L693.346 635.288L711.883 646.989ZM796.734 630.535L808.472 633.357L795.04 628.758L783.391 625.65L796.734 630.535ZM738.989 640.692L748.223 641.871L730.139 632.002L720.932 630.557L738.989 640.692ZM706.956 646.507L710.948 646.897L692.357 635.162L688.405 634.657L706.956 646.507ZM773.444 632.803L785.783 635.091L769.026 627.829L756.713 625.203L773.444 632.803ZM783.888 630.565L796.567 633.269L780.865 627.156L768.229 624.119L783.888 630.565ZM702.861 646.106L706.023 646.415L687.417 634.531L684.295 634.132L702.861 646.106ZM753.144 635.184L764.138 636.909L746.607 628.257L735.639 626.224L753.144 635.184ZM729.329 639.458L737.875 640.549L719.739 630.37L711.224 629.034L729.329 639.458ZM795.154 628.351L803.216 630.502L794.348 627.683L786.483 625.382L795.154 628.351ZM720.391 638.316L728.238 639.318L710.056 628.85L702.243 627.625L720.391 638.316ZM780.987 626.75L793.159 629.676L778.865 624.442L766.756 621.21L780.987 626.75ZM759.797 630.272L771.707 632.481L754.776 624.79L742.899 622.258L759.797 630.272ZM741.369 633.336L751.802 634.973L734.178 625.952L723.775 624.024L741.369 633.336ZM769.151 627.423L781.593 630.076L765.569 623.479L753.175 620.5L769.151 627.423ZM712.24 637.275L719.329 638.181L701.109 627.447L694.058 626.34L712.24 637.275ZM778.983 624.035L789.241 626.772L777.492 622.751L767.438 619.808L778.983 624.035ZM730.276 631.596L740.083 633.134L722.384 623.766L712.611 621.954L730.276 631.596ZM704.856 636.332L711.195 637.142L692.944 626.165L686.643 625.176L704.856 636.332ZM746.741 627.851L758.186 629.973L741.116 621.878L729.709 619.446L746.741 627.851ZM765.69 623.074L777.945 626.019L763.055 620.223L750.864 616.97L765.69 623.074ZM754.918 624.388L767.061 626.977L750.791 619.927L738.696 617.02L754.918 624.388ZM698.27 635.491L703.829 636.201L685.552 625.006L680.034 624.139L698.27 635.491ZM719.873 629.963L729.039 631.402L711.276 621.706L702.148 620.014L719.873 629.963ZM692.5 634.754L697.26 635.362L678.96 623.971L674.245 623.231L692.5 634.754ZM734.321 625.549L745.21 627.568L728.024 619.086L717.177 616.774L734.321 625.549ZM763.18 619.818L774.456 622.828L761.319 618.017L750.174 614.756L763.18 619.818ZM687.57 634.124L691.511 634.627L673.197 623.067L669.302 622.455L687.57 634.124ZM710.202 628.445L718.68 629.775L700.862 619.775L692.427 618.212L710.202 628.445ZM683.471 633.6L686.582 633.998L668.254 622.291L665.19 621.81L683.471 633.6ZM741.243 621.472L752.981 623.975L736.515 616.496L724.826 613.686L741.243 621.472ZM750.921 619.524L763.031 622.434L747.715 616.129L735.675 612.917L750.921 619.524ZM722.524 623.362L732.86 625.278L715.582 616.434L705.287 614.238L722.524 623.362ZM761.448 617.614L768.629 619.717L760.171 616.821L753.429 614.679L761.448 617.614ZM701.253 627.041L709.034 628.262L691.174 617.979L683.436 616.545L701.253 627.041ZM747.841 615.725L759.48 618.831L745.485 613.383L733.957 610.009L747.841 615.725ZM728.166 618.684L739.459 621.092L722.833 613.207L711.594 610.506L728.166 618.684ZM693.095 625.761L700.118 626.863L682.221 616.319L675.244 615.025L693.095 625.761ZM711.418 621.302L721.133 623.103L703.773 613.915L694.107 611.855L711.418 621.302ZM736.663 616.096L748.538 618.95L732.908 612.178L721.099 609.027L736.663 616.096ZM685.704 624.601L691.981 625.586L674.054 614.805L667.827 613.651L685.704 624.601ZM745.617 612.981L755.329 615.824L744.114 611.717L734.615 608.698L745.617 612.981ZM701.003 619.371L710.081 621.055L692.66 611.546L683.632 609.621L701.003 619.371ZM715.729 616.032L726.481 618.325L709.728 610.057L699.033 607.487L715.729 616.032ZM679.115 623.567L684.613 624.43L666.662 613.434L661.215 612.425L679.115 623.567ZM733.046 611.777L744.692 614.885L730.119 608.886L718.574 605.506L733.046 611.777ZM722.967 612.804L734.481 615.572L718.61 608.363L707.16 605.307L722.967 612.804ZM673.343 622.662L678.041 623.399L660.072 612.213L655.425 611.352L673.343 622.662ZM691.325 617.577L699.718 619.133L682.242 609.324L673.902 607.546L691.325 617.577ZM668.413 621.888L672.295 622.497L654.31 611.144L650.482 610.434L668.413 621.888ZM703.918 613.515L714.133 615.692L697.276 607.064L687.121 604.623L703.918 613.515ZM730.257 608.486L740.928 611.608L728.271 606.682L717.758 603.34L730.257 608.486ZM664.313 621.245L667.366 621.723L649.368 610.228L646.371 609.673L664.313 621.245ZM682.371 615.917L690.072 617.345L672.555 607.26L664.909 605.63L682.371 615.917ZM718.762 607.966L730.279 611.039L715.304 604.55L703.88 601.206L718.762 607.966ZM709.875 609.658L720.974 612.325L704.913 604.708L693.881 601.764L709.875 609.658ZM692.806 611.145L702.404 613.192L685.463 604.224L675.926 601.932L692.806 611.145ZM728.408 606.283L734.939 608.358L727.598 605.67L721.29 603.512L728.408 606.283ZM674.209 614.404L681.155 615.691L663.601 605.35L656.714 603.881L674.209 614.404ZM715.444 604.15L726.421 607.363L712.901 601.797L702.067 598.353L715.444 604.15ZM697.431 606.666L708.01 609.21L691.798 601.208L681.287 598.403L697.431 606.666ZM666.82 613.034L673.019 614.183L655.439 603.61L649.297 602.3L666.82 613.034ZM705.049 604.306L716.274 607.301L700.992 600.36L689.862 597.103L705.049 604.306ZM682.389 608.924L691.359 610.836L674.352 601.554L665.444 599.413L682.389 608.924ZM660.231 611.811L665.655 612.817L648.052 602.035L642.687 600.891L660.231 611.811ZM713.033 601.396L722.065 604.266L711.618 600.199L702.773 597.172L713.033 601.396ZM672.709 606.86L681 608.628L663.935 599.05L655.709 597.072L672.709 606.86ZM685.616 603.826L695.674 606.244L679.343 597.884L669.353 595.219L685.616 603.826ZM654.46 610.742L659.087 611.6L641.465 600.63L636.9 599.657L654.46 610.742ZM701.154 599.968L712.174 603.193L698.079 597.085L687.185 593.623L701.154 599.968ZM691.95 600.811L702.803 603.707L687.295 596.352L676.532 593.202L691.95 600.811ZM649.532 609.829L653.345 610.535L635.711 599.404L631.96 598.604L649.532 609.829ZM663.758 604.951L671.363 606.573L654.255 596.724L646.715 594.911L663.758 604.951ZM645.434 609.068L648.419 609.622L630.773 598.351L627.851 597.728L645.434 609.068ZM674.503 601.156L683.958 603.428L667.529 594.732L658.144 592.227L674.503 601.156ZM698.228 596.689L708.176 599.852L696.197 594.92L686.43 591.577L698.228 596.689ZM655.599 603.211L662.45 604.672L645.306 594.572L638.522 592.941L655.599 603.211ZM687.439 595.953L698.266 599.123L683.763 592.535L673.054 589.131L687.439 595.953ZM679.5 597.488L689.866 600.254L674.178 592.512L663.904 589.505L679.5 597.488ZM696.325 594.517L702.092 596.491L695.149 593.789L689.797 591.83L696.325 594.517ZM664.089 598.652L672.927 600.776L656.421 591.768L647.656 589.428L664.089 598.652ZM648.214 601.637L654.325 602.94L637.153 592.613L631.108 591.159L648.214 601.637ZM683.933 592.146L694.239 595.422L681.363 589.842L671.2 586.363L683.933 592.146ZM667.684 594.335L677.556 596.97L661.734 588.871L651.948 586.006L667.684 594.335ZM641.63 600.233L646.968 601.371L629.774 590.839L624.504 589.572L641.63 600.233ZM674.339 592.119L684.871 595.202L670.071 588.183L659.653 584.872L674.339 592.119ZM654.412 596.326L662.58 598.29L646.012 588.99L637.92 586.831L654.412 596.326ZM635.866 599.004L640.408 599.972L623.196 589.258L618.721 588.182L635.866 599.004ZM681.516 589.447L689.749 592.265L679.771 588.158L671.83 585.25L681.516 589.447ZM630.943 597.954L634.676 598.75L617.449 587.877L613.786 586.996L630.943 597.954ZM645.468 594.176L652.958 595.977L636.34 586.409L628.925 584.431L645.468 594.176ZM656.575 591.371L665.861 593.849L649.925 585.414L640.73 582.723L656.575 591.371ZM670.22 587.787L680.511 591.058L667.026 584.933L656.879 581.46L670.22 587.787ZM626.849 597.081L629.757 597.701L612.519 586.692L609.682 586.009L626.849 597.081ZM661.895 588.477L671.985 591.431L656.959 584.015L646.983 580.844L661.895 588.477ZM637.317 592.217L644.059 593.838L627.399 584.023L620.735 582.245L637.317 592.217ZM646.169 588.594L654.851 590.911L638.831 582.167L630.237 579.652L646.169 588.594ZM667.203 584.548L676.449 587.712L664.973 582.74L655.94 579.431L667.203 584.548ZM629.94 590.444L635.949 591.888L619.259 581.851L613.328 580.268L629.94 590.444ZM657.129 583.626L667.237 586.839L653.338 580.247L643.365 576.834L657.129 583.626ZM650.087 585.021L659.725 587.843L644.534 580.066L634.998 577.035L650.087 585.021ZM636.503 586.015L644.525 588.156L628.436 579.125L620.505 576.804L636.503 586.015ZM665.123 582.345L669.874 584.084L663.882 581.617L659.588 579.946L665.123 582.345ZM623.365 588.863L628.606 590.123L611.89 579.884L606.728 578.507L623.365 588.863ZM653.489 579.852L663.029 583.119L650.645 577.493L641.301 574.072L653.489 579.852ZM617.608 587.48L622.058 588.549L605.324 578.133L600.952 576.966L617.608 587.48ZM638.991 581.774L648.064 584.429L632.738 576.317L623.771 573.467L638.991 581.774ZM644.697 579.675L654.435 582.77L640.234 575.761L630.624 572.471L644.697 579.675ZM627.567 583.63L634.922 585.593L618.78 576.299L611.512 574.172L627.567 583.63ZM612.694 586.299L616.336 587.175L599.586 576.601L596.024 575.651L612.694 586.299ZM650.823 577.108L658.266 579.833L649.14 575.879L641.977 573.09L650.823 577.108ZM608.607 585.317L611.428 585.994L594.666 575.288L591.925 574.557L608.607 585.317ZM619.426 581.457L626.04 583.222L609.85 573.685L603.328 571.776L619.426 581.457ZM628.598 578.732L637.092 581.218L621.66 572.796L613.269 570.128L628.598 578.732ZM640.408 575.374L649.949 578.64L636.98 572.489L627.613 569.06L640.408 575.374ZM632.901 575.925L642.248 578.896L627.821 571.512L618.594 568.353L632.901 575.925ZM612.061 579.492L617.95 581.064L601.73 571.309L595.93 569.611L612.061 579.492ZM618.95 575.909L626.798 578.205L611.281 569.496L603.541 567.037L618.95 575.909ZM637.134 572.095L645.529 575.169L634.803 570.297L626.653 567.124L637.134 572.095ZM605.497 577.74L610.624 579.108L594.375 569.156L589.336 567.681L605.497 577.74ZM627.987 571.121L637.276 574.301L623.897 567.699L614.771 564.357L627.987 571.121ZM621.827 572.405L630.641 575.207L616.042 567.479L607.345 564.501L621.827 572.405ZM599.75 576.207L604.093 577.366L587.823 567.238L583.57 565.993L599.75 576.207ZM610.027 573.296L617.225 575.403L601.648 566.435L594.55 564.179L610.027 573.296ZM634.986 569.915L638.838 571.413L633.895 569.272L630.438 567.849L634.986 569.915ZM594.848 574.899L598.385 575.843L582.101 565.564L578.652 564.554L594.848 574.899ZM624.076 567.314L632.813 570.513L621.159 564.986L612.627 561.663L624.076 567.314ZM611.447 569.106L619.715 571.734L604.979 563.691L596.83 560.902L611.447 569.106ZM601.902 570.918L608.365 572.81L592.732 563.6L586.374 561.58L601.902 570.918ZM616.203 567.088L625.184 570.162L611.511 563.163L602.68 559.929L616.203 567.088ZM590.767 573.809L593.489 574.536L577.192 564.127L574.558 563.356L590.767 573.809ZM621.312 564.591L627.813 567.122L619.489 563.341L613.34 560.81L621.312 564.591ZM594.553 568.767L600.303 570.451L584.634 561.027L578.984 559.231L594.553 568.767ZM601.821 566.047L609.46 568.474L594.622 560.146L587.098 557.57L601.821 566.047ZM611.679 562.774L620.36 565.953L608.094 559.9L599.605 556.594L611.679 562.774ZM605.147 563.302L613.65 566.213L599.754 558.858L591.401 555.8L605.147 563.302ZM588.002 566.851L592.999 568.313L577.296 558.695L572.402 557.139L588.002 566.851ZM592.915 563.216L599.928 565.445L585.009 556.855L578.109 554.493L592.915 563.216ZM608.272 559.515L615.819 562.452L605.861 557.73L598.602 554.743L608.272 559.515ZM582.269 565.173L586.488 566.407L570.761 556.617L566.641 555.308L582.269 565.173ZM594.788 559.755L602.781 562.493L588.722 554.819L580.87 551.944L594.788 559.755ZM599.918 558.468L608.419 561.581L595.735 555.088L587.412 551.848L599.918 558.468ZM577.379 563.741L580.8 564.742L565.056 554.804L561.735 553.749L577.379 563.741ZM584.811 560.639L591.097 562.638L576.11 553.808L569.94 551.696L584.811 560.639ZM573.308 562.549L575.92 563.314L560.16 553.248L557.647 552.449L573.308 562.549ZM606.041 557.347L608.743 558.46L604.593 556.575L602.486 555.662L606.041 557.347ZM595.902 554.699L603.74 557.751L592.831 552.367L585.235 549.24L595.902 554.699ZM585.182 556.467L592.579 558.999L578.387 551.034L571.13 548.377L585.182 556.467ZM577.479 558.309L583.07 560.086L568.031 551.042L562.554 549.167L577.479 558.309ZM588.893 554.431L596.993 557.397L584 550.52L576.072 547.433L588.893 554.431ZM570.947 556.233L575.792 557.773L560.715 548.538L555.981 546.917L570.947 556.233ZM593.018 551.986L598.561 554.268L591.05 550.706L585.923 548.485L593.018 551.986ZM576.296 553.426L583.094 555.752L568.804 547.525L562.14 545.085L576.296 553.426ZM584.169 550.132L592.032 553.193L580.501 547.29L572.849 544.14L584.169 550.132ZM578.561 550.648L586.214 553.45L572.997 546.236L565.507 543.321L578.561 550.648ZM565.226 554.415L569.305 555.711L554.196 546.306L550.23 544.949L565.226 554.415ZM568.215 550.658L574.298 552.741L559.929 544.276L553.976 542.095L568.215 550.658ZM560.354 552.866L563.64 553.911L548.508 544.359L545.331 543.27L560.354 552.866ZM580.673 546.905L587.246 549.61L578.076 545.085L571.824 542.375L580.673 546.905ZM556.291 551.575L558.778 552.365L543.629 542.689L541.251 541.875L556.291 551.575ZM568.98 547.139L576.078 549.738L562.694 542.226L555.75 539.522L568.98 547.139ZM573.173 545.851L580.758 548.804L568.785 542.466L561.411 539.432L573.173 545.851ZM560.899 548.154L566.306 550.005L551.879 541.328L546.599 539.394L560.899 548.154ZM578.266 544.705L579.797 545.37L576.965 544.026L576.011 543.593L578.266 544.705ZM554.385 545.924L559.061 547.524L544.583 538.656L540.034 536.99L554.385 545.924ZM568.964 542.084L575.94 544.956L565.79 539.76L559.086 536.855L568.964 542.084ZM560.119 543.895L566.654 546.288L553.137 538.505L546.751 536.019L560.119 543.895ZM562.868 541.839L570.096 544.653L557.815 537.95L550.779 535.054L562.868 541.839ZM548.682 543.971L552.6 545.313L538.086 536.278L534.294 534.889L548.682 543.971ZM565.957 539.371L570.419 541.305L563.979 538.127L559.957 536.301L565.957 539.371ZM552.06 540.943L557.908 543.085L544.286 535.06L538.587 532.841L552.06 540.943ZM543.822 542.308L546.961 543.382L532.415 534.2L529.405 533.099L543.822 542.308ZM558.004 537.572L564.899 540.41L554.1 534.694L547.464 531.819L558.004 537.572ZM553.315 538.12L560.056 540.745L547.542 533.721L540.985 531.021L553.315 538.12ZM539.774 540.921L542.121 541.725L527.552 532.42L525.331 531.606L539.774 540.921ZM544.77 538.274L549.964 540.176L536.263 531.936L531.217 529.973L544.77 538.274ZM554.285 534.314L559.922 536.757L551.74 532.569L546.435 530.159L554.285 534.314ZM544.479 534.681L550.703 537.103L538.017 529.8L531.965 527.308L544.479 534.681ZM547.724 533.339L554.407 536.09L543.172 529.959L536.721 527.163L547.724 533.339ZM538.276 535.896L542.754 537.536L528.991 529.106L524.655 527.417L538.276 535.896ZM532.594 533.815L536.329 535.183L522.517 526.585L518.924 525.187L532.594 533.815ZM551.902 532.178L552.162 532.295L551.345 531.892L551.902 532.178ZM536.447 531.554L542.015 533.722L529.192 526.167L523.796 523.945L536.447 531.554ZM543.366 529.583L549.299 532.153L540.065 527.266L534.437 524.709L543.366 529.583ZM538.198 529.418L544.488 532.007L532.938 525.524L526.861 522.89L538.198 529.418ZM527.752 532.043L530.714 533.127L516.863 524.384L514.043 523.286L527.752 532.043ZM529.184 528.727L534.122 530.649L521.198 522.876L516.423 520.91L529.184 528.727ZM523.715 530.564L525.899 531.364L512.016 522.496L509.976 521.703L523.715 530.564ZM540.25 526.885L543.685 528.445L538.274 525.675L535.294 524.262L540.25 526.885ZM533.12 525.141L539.074 527.722L529.176 522.32L523.489 519.736L533.12 525.141ZM529.389 525.791L535.231 528.196L523.44 521.408L517.802 518.965L529.389 525.791ZM522.709 526.206L526.958 527.86L513.951 519.892L509.859 518.207L522.709 526.206ZM529.366 521.942L533.881 523.992L526.594 520.135L522.504 518.196L529.366 521.942ZM521.387 522.496L526.617 524.65L514.647 517.598L509.618 515.419L521.387 522.496ZM517.049 524.002L520.571 525.373L507.495 517.234L504.136 515.852L517.049 524.002ZM523.626 521.028L529.337 523.503L518.968 517.683L513.507 515.202L523.626 521.028ZM512.224 522.123L514.987 523.2L501.866 514.917L499.261 513.844L512.224 522.123ZM514.148 519.516L518.79 521.427L506.686 514.148L502.233 512.218L514.148 519.516ZM519.152 517.301L524.105 519.552L515.764 514.999L511.152 512.812L519.152 517.301ZM508.2 520.557L510.196 521.335L497.035 512.928L495.199 512.172L508.2 520.557ZM514.844 517.222L520.204 519.545L509.498 513.381L504.371 511.053L514.844 517.222ZM507.692 516.858L511.676 518.499L499.461 511.017L495.665 509.372L507.692 516.858ZM515.955 514.622L518.083 515.632L513.779 513.353L512.218 512.582L515.955 514.622ZM506.876 513.77L511.689 515.855L500.728 509.398L496.15 507.318L506.876 513.77ZM509.685 513.002L514.63 515.248L505.585 510.171L500.957 507.977L509.685 513.002ZM502.055 514.538L505.327 515.885L493.029 508.229L489.942 506.892L502.055 514.538ZM497.249 512.559L499.784 513.603L487.424 505.8L485.071 504.78L497.249 512.559ZM499.662 510.644L503.944 512.499L492.8 505.797L488.733 503.949L499.662 510.644ZM505.771 509.791L509.215 511.425L503.008 508.037L499.993 506.549L505.771 509.791ZM500.929 509.025L505.676 511.181L496.153 505.698L491.685 503.579L500.929 509.025ZM493.241 510.909L495.023 511.643L482.612 503.716L481.016 503.025L493.241 510.909ZM493.23 507.855L496.889 509.442L485.602 502.528L482.155 500.962L493.23 507.855ZM496.341 505.319L500.202 507.151L492.851 503.024L489.383 501.313L496.341 505.319ZM492.994 505.42L497.286 507.37L487.407 501.55L483.388 499.643L492.994 505.42ZM487.614 505.422L490.593 506.713L479.188 499.614L476.424 498.359L487.614 505.422ZM485.799 502.152L489.645 503.899L479.508 497.803L475.925 496.104L485.799 502.152ZM493.026 502.638L493.975 503.107L490.842 501.397L490.513 501.228L493.026 502.638ZM482.828 503.348L485.095 504.331L473.607 497.079L471.549 496.144L482.828 503.348ZM487.607 501.177L491.538 503.041L483.448 498.383L479.868 496.618L487.607 501.177ZM478.839 501.62L480.369 502.283L468.814 494.902L467.491 494.301L478.839 501.62ZM479.396 499.244L482.669 500.73L472.338 494.403L469.315 492.969L479.396 499.244ZM483.641 498.007L485.884 499.113L480.715 496.213L479 495.335L483.641 498.007ZM479.704 497.428L483.329 499.148L474.726 494.079L471.437 492.456L479.704 497.428ZM473.801 496.702L476.428 497.896L465.948 491.372L463.566 490.242L473.801 496.702ZM472.538 494.03L475.824 495.588L466.862 490.198L463.881 488.727L472.538 494.03ZM474.931 493.708L477.705 495.078L471.356 491.422L469.03 490.232L474.931 493.708ZM469.032 494.537L470.984 495.423L460.39 488.736L458.684 487.927L469.032 494.537ZM465.057 492.731L466.297 493.294L455.619 486.474L454.62 486L465.057 492.731ZM466.155 491.002L468.951 492.328L459.712 486.669L457.215 485.437L466.155 491.002ZM467.061 489.825L469.788 491.17L462.664 486.973L460.353 485.79L467.061 489.825ZM460.583 488.359L462.79 489.406L453.354 483.533L451.436 482.586L460.583 488.359ZM459.914 486.298L462.487 487.567L454.842 482.969L452.647 481.846L459.914 486.298ZM462.886 486.613L463.925 487.144L460.048 484.912L459.579 484.664L462.886 486.613ZM455.836 486.108L457.407 486.853L447.814 480.798L446.53 480.164L455.836 486.108ZM453.555 483.159L455.745 484.24L447.72 479.324L445.883 478.383L453.555 483.159ZM451.877 484.231L452.772 484.655L443.064 478.454L442.454 478.153L451.877 484.231ZM455.052 482.603L456.52 483.354L451.353 480.31L450.409 479.81L455.052 482.603ZM448.008 480.422L449.694 481.254L441.381 476.079L440.052 475.399L448.008 480.422ZM447.933 478.958L449.54 479.781L443.566 476.188L442.422 475.583L447.933 478.958ZM443.278 478.087L444.386 478.634L435.866 473.256L435.101 472.864L443.278 478.087ZM441.592 475.713L443.005 476.436L436.468 472.432L435.488 471.913L441.592 475.713ZM439.338 476.143L439.814 476.378L431.142 470.838L431.002 470.766L439.338 476.143ZM436.076 472.888L437.091 473.408L430.141 469.083L429.546 468.767L436.076 472.888ZM436.677 472.064L436.934 472.2L435.014 471.045L436.677 472.064ZM431.359 470.475L431.89 470.746L424.64 466.17L424.526 466.11L431.359 470.475ZM430.356 468.718L430.723 468.912L427.29 466.809L430.356 468.718ZM424.854 465.806L425.01 465.888L423.204 464.764L424.854 465.806Z" fill="url(#paint0_linear_3449_5034)"/>
<defs>
<linearGradient id="paint0_linear_3449_5034" x1="1232.96" y1="-526.471" x2="-134.685" y2="-216.176" gradientUnits="userSpaceOnUse">
<stop offset="0.3" stop-color="#FF5C01"/>
<stop offset="0.66" stop-color="#16E3FF"/>
</linearGradient>
</defs>
</svg>
